<svg width="16" height="10" viewBox="0 0 16 10" fill="none" xmlns="http://www.w3.org/2000/svg">
<path d="M12.5855 9.2809H3.46426C3.35758 9.2809 3.30424 9.33226 3.30424 9.43499V9.84591C3.30424 9.94864 3.35758 10 3.46426 10H12.5855C12.6922 10 12.7455 9.94864 12.7455 9.84591V9.43499C12.7455 9.33226 12.6388 9.2809 12.5855 9.2809ZM14.8258 3.57945L10.6119 5.22311C10.5585 5.22311 10.4519 5.22311 10.4519 5.17175L8.15823 2.03852C8.05154 1.98716 7.94486 1.98716 7.89152 2.03852L5.59788 5.17175C5.54454 5.22311 5.4912 5.22311 5.43786 5.22311L1.22396 3.57945C1.11728 3.52809 0.957254 3.63082 1.0106 3.78491L3.19756 8.61316C3.19756 8.66453 3.2509 8.71589 3.35758 8.71589H7.9982H12.6388C12.6922 8.71589 12.7455 8.66453 12.7989 8.61316L14.9858 3.78491C15.0392 3.63082 14.9325 3.52809 14.8258 3.57945Z" fill="white"/>
<circle cx="0.5" cy="2.5" r="0.5" fill="white"/>
<circle cx="15.5" cy="2.5" r="0.5" fill="white"/>
<circle cx="8" cy="0.5" r="0.5" fill="white"/>
</svg>
