<?xml version="1.0" encoding="UTF-8"?>
<svg width="52px" height="59px" viewBox="0 0 52 59" version="1.1" xmlns="http://www.w3.org/2000/svg" xmlns:xlink="http://www.w3.org/1999/xlink">
    <title>Group 8</title>
    <g id="UI" stroke="none" stroke-width="1" fill="none" fill-rule="evenodd">
        <g id="Add-Banner-V1" transform="translate(-1081.000000, -961.000000)" fill="#EEAA22">
            <g id="Group-18" transform="translate(1081.000000, 961.000000)">
                <g id="UI">
                    <g id="Group-8" transform="translate(0.001801, 0.000000)">
                        <path d="M15.1758006,9.81720039 C15.174806,11.0635828 14.1637834,12.0732626 12.9174008,12.0726005 C11.6710181,12.0719377 10.6610695,11.0611836 10.6614004,9.81480087 C10.6617315,8.56841813 11.672217,7.5582003 12.9185998,7.5582003 C13.5175585,7.5582003 14.0919591,7.79625865 14.515318,8.21995517 C14.9386769,8.64365169 15.1762775,9.2182419 15.1758006,9.81720039" id="Fill-343"></path>
                        <path d="M15.7409999,22.9302009 C15.7409999,24.4889695 14.4773683,25.752601 12.9185998,25.752601 C11.3598313,25.752601 10.0961997,24.4889695 10.0961997,22.9302009 C10.0961997,21.3714324 11.3598313,20.1078008 12.9185998,20.1078008 C14.4773683,20.1078008 15.7409999,21.3714324 15.7409999,22.9302009" id="Fill-344"></path>
                        <path d="M15.7409999,36.0450014 C15.7409999,37.60377 14.4773683,38.8674015 12.9185998,38.8674015 C11.3598313,38.8674015 10.0961997,37.60377 10.0961997,36.0450014 C10.0961997,34.4862329 11.3598313,33.2226013 12.9185998,33.2226013 C14.4773683,33.2226013 15.7409999,34.4862329 15.7409999,36.0450014" id="Fill-345"></path>
                        <path d="M15.1757999,49.167002 C15.1748058,50.41315 14.1641486,51.4227326 12.9180003,51.4224013 C11.6718519,51.4220699 10.6617319,50.4119498 10.6614004,49.1658015 C10.6610691,47.9196531 11.6706518,46.908996 12.9167998,46.9080019 C13.5159239,46.9080019 14.0905094,47.146003 14.5141541,47.5696477 C14.9377988,47.9932924 15.1757999,48.5678779 15.1757999,49.167002" id="Fill-346"></path>
                        <path d="M40.9536016,9.81720039 C40.9526068,11.0633484 39.9419497,12.0729311 38.6958013,12.0725998 C37.4496529,12.0722683 36.4395329,11.0621483 36.4392014,9.81599991 C36.4388702,8.56985156 37.4484528,7.55919444 38.6946008,7.55819958 C39.2938713,7.55772222 39.8687347,7.79556981 40.292483,8.21931818 C40.7162314,8.64306656 40.954079,9.21792988 40.9536016,9.81720039" id="Fill-347"></path>
                        <path d="M41.5188009,22.9302009 C41.5188009,24.4889695 40.2551694,25.752601 38.6964008,25.752601 C37.1376323,25.752601 35.8740007,24.4889695 35.8740007,22.9302009 C35.8740007,21.3714324 37.1376323,20.1078008 38.6964008,20.1078008 C40.2551694,20.1078008 41.5188009,21.3714324 41.5188009,22.9302009" id="Fill-348"></path>
                        <path d="M41.5188009,36.0450014 C41.5188009,37.60377 40.2551694,38.8674015 38.6964008,38.8674015 C37.1376323,38.8674015 35.8740007,37.60377 35.8740007,36.0450014 C35.8740007,34.4862329 37.1376323,33.2226013 38.6964008,33.2226013 C40.2551694,33.2226013 41.5188009,34.4862329 41.5188009,36.0450014" id="Fill-349"></path>
                        <path d="M40.9536009,49.167002 C40.9526068,50.41315 39.9419497,51.4227326 38.6958013,51.4224013 C37.4496529,51.4220699 36.4395329,50.4119498 36.4392014,49.1658015 C36.4388702,47.9196531 37.4484528,46.908996 38.6946008,46.9080019 C39.9422121,46.9080019 40.9536009,47.9193907 40.9536009,49.167002" id="Fill-350"></path>
                        <path d="M4.51440234,15.7896006 C4.51141897,17.0352762 3.4998855,18.0430527 2.2542075,18.0414 C1.00852951,18.0397433 -0.000323054466,17.029283 5.74339052e-06,15.783604 C0.000334702019,14.5379249 1.00972068,13.5279975 2.25539937,13.5270005 C2.85514771,13.5270005 3.43027946,13.765495 3.8540278,14.1899186 C4.27777613,14.6143423 4.51535524,15.1898531 4.51440234,15.7896006" id="Fill-351"></path>
                        <path d="M4.51439946,29.4246012 C4.51340554,30.6709836 3.50238294,31.6806634 2.25600033,31.6800013 C1.00961772,31.6793385 -0.000330963025,30.6685844 3.0908609e-13,29.4222016 C0.000331125745,28.1758189 1.01081659,27.1656011 2.25719937,27.1656011 C3.50410767,27.1665946 4.51439946,28.1776925 4.51439946,29.4246012" id="Fill-352"></path>
                        <path d="M4.51439946,42.9480017 C4.51340533,44.1941497 3.5027482,45.2037324 2.25659985,45.2034011 C1.0104515,45.2030696 0.000331460587,44.1929496 5.69919223e-10,42.9468012 C-0.00033129634,41.7006529 1.00925137,40.6899958 2.25539937,40.6890016 C3.50230767,40.6899952 4.51259986,41.701093 4.51259946,42.9480017" id="Fill-353"></path>
                        <path d="M51.5682013,29.4246012 C51.5682013,30.6715087 50.5579041,31.6826029 49.3109969,31.6835948 C48.0640898,31.6845853 47.0521899,30.6750986 47.0502011,29.4281926 C47.0482181,28.1812866 48.0568972,27.1685817 49.3038012,27.1656011 C50.5514125,27.1656011 51.5628013,28.1769899 51.5628013,29.4246012" id="Fill-354"></path>
                        <path d="M51.4746013,42.9480017 C51.4746013,44.1409368 50.5075364,45.1080018 49.3146012,45.1080018 C48.1216661,45.1080018 47.1546012,44.1409368 47.1546012,42.9480017 C47.1546012,41.7550666 48.1216661,40.7880016 49.3146012,40.7880016 C50.5075364,40.7880016 51.4746013,41.7550666 51.4746013,42.9480017" id="Fill-355"></path>
                        <path d="M51.5682013,15.7896006 C51.5662114,17.0360377 50.5550394,18.0453271 49.3086008,18.0449943 C48.0621621,18.0446613 47.0515294,17.0348319 47.050204,15.7883939 C47.0488812,14.541956 48.0573661,13.5299817 49.3038012,13.5270005 C50.5514125,13.5270005 51.5628013,14.5383893 51.5628013,15.7860006" id="Fill-356"></path>
                        <path d="M28.0116004,2.25720009 C28.0116004,3.50358287 27.0013826,4.51406834 25.7549998,4.51439946 C24.5086171,4.51473043 23.497863,3.50478174 23.4972002,2.25839913 C23.4965381,1.01201652 24.5062179,0.000993925666 25.7526003,3.09530179e-13 C26.351559,3.09530179e-13 26.9259596,0.238058351 27.3493185,0.661754869 C27.7726774,1.08545139 28.010278,1.6600416 28.0098004,2.25900009" id="Fill-357"></path>
                        <path d="M28.5768004,15.8418006 C28.5768004,17.4005692 27.3131688,18.6642007 25.7544003,18.6642007 C24.1956318,18.6642007 22.9320002,17.4005692 22.9320002,15.8418006 C22.9320002,14.2830321 24.1956318,13.0194005 25.7544003,13.0194005 C27.3131688,13.0194005 28.5768004,14.2830321 28.5768004,15.8418006" id="Fill-358"></path>
                        <path d="M29.7054005,29.4246012 C29.7054005,31.6116489 27.932448,33.3846013 25.7454003,33.3846013 C23.5583526,33.3846013 21.7854001,31.6116489 21.7854001,29.4246012 C21.7854001,27.2375535 23.5583526,25.464601 25.7454003,25.464601 C27.932448,25.464601 29.7054005,27.2375535 29.7054005,29.4246012" id="Fill-359"></path>
                        <path d="M28.5768004,43.0074017 C28.5768004,44.5661702 27.3131688,45.8298018 25.7544003,45.8298018 C24.1956318,45.8298018 22.9320002,44.5661702 22.9320002,43.0074017 C22.9320002,41.4486332 24.1956318,40.1850016 25.7544003,40.1850016 C27.3131688,40.1850016 28.5768004,41.4486332 28.5768004,43.0074017" id="Fill-360"></path>
                        <path d="M28.0116011,56.5920022 C28.0106065,57.8383846 26.9995839,58.8480645 25.7532013,58.8474023 C24.5068187,58.8467395 23.49687,57.8359855 23.4972009,56.5896027 C23.4975321,55.34322 24.5080175,54.3330022 25.7544003,54.3330022 C26.353359,54.3330022 26.9277596,54.5710605 27.3511185,54.994757 C27.7744774,55.4184535 28.012078,55.9930438 28.0116011,56.5920022" id="Fill-361"></path>
                    </g>
                </g>
            </g>
        </g>
    </g>
</svg>